{
  "accessors": [
    {
      "bufferView": 2,
      "componentType": 5126,
      "count": 5824,
      "max": [
        143.971923828125,
        126.16288757324219,
        447.7100524902344
      ],
      "min": [
        -143.96669006347656,
        -128.94070434570313,
        0.323947012424469
      ],
      "type": "VEC3"
    },
    {
      "bufferView": 2,
      "byteOffset": 69888,
      "componentType": 5126,
      "count": 5824,
      "max": [
        0.9996944665908813,
        0.9998549818992615,
        0.9999205470085144
      ],
      "min": [
        -0.9996583461761475,
        -0.9999166131019592,
        -0.9999598860740662
      ],
      "type": "VEC3"
    },
    {
      "bufferView": 3,
      "componentType": 5126,
      "count": 5824,
      "max": [
        0.9999206066131592,
        0.9999052882194519,
        0.9998123049736023,
        1.0
      ],
      "min": [
        -0.9998142123222351,
        -0.9999010562896729,
        -0.9999306797981262,
        -1.0
      ],
      "type": "VEC4"
    },
    {
      "bufferView": 1,
      "componentType": 5126,
      "count": 5824,
      "max": [
        0.9971749782562256,
        0.9980469942092896
      ],
      "min": [
        0.0019529999699443579,
        0.0019529999699443579
      ],
      "type": "VEC2"
    },
    {
      "bufferView": 0,
      "componentType": 5125,
      "count": 51546,
      "type": "SCALAR"
    },
    {
      "bufferView": 2,
      "byteOffset": 139776,
      "componentType": 5126,
      "count": 576,
      "max": [
        129.855712890625,
        38.945743560791016,
        413.31549072265625
      ],
      "min": [
        -153.10354614257813,
        -67.74236297607422,
        153.5540771484375
      ],
      "type": "VEC3"
    },
    {
      "bufferView": 2,
      "byteOffset": 146688,
      "componentType": 5126,
      "count": 576,
      "max": [
        1.0,
        0.9848080277442932,
        0.0
      ],
      "min": [
        0.0,
        -1.0,
        0.0
      ],
      "type": "VEC3"
    },
    {
      "bufferView": 1,
      "byteOffset": 46592,
      "componentType": 5126,
      "count": 576,
      "max": [
        1.0,
        1.0
      ],
      "min": [
        0.0,
        0.0
      ],
      "type": "VEC2"
    },
    {
      "bufferView": 0,
      "byteOffset": 206184,
      "componentType": 5125,
      "count": 1944,
      "type": "SCALAR"
    }
  ],
  "asset": {
    "extras": {
      "author": "Enkarra (https://sketchfab.com/Enkarra)",
      "license": "CC-BY-4.0 (http://creativecommons.org/licenses/by/4.0/)",
      "source": "https://sketchfab.com/3d-models/the-halloween-cat-dba541e7635c49f190e2a32d9e67c6f9",
      "title": "The Halloween cat"
    },
    "generator": "Sketchfab-14.32.1",
    "version": "2.0"
  },
  "bufferViews": [
    {
      "buffer": 0,
      "byteLength": 213960,
      "name": "floatBufferViews",
      "target": 34963
    },
    {
      "buffer": 0,
      "byteLength": 51200,
      "byteOffset": 213960,
      "byteStride": 8,
      "name": "floatBufferViews",
      "target": 34962
    },
    {
      "buffer": 0,
      "byteLength": 153600,
      "byteOffset": 265160,
      "byteStride": 12,
      "name": "floatBufferViews",
      "target": 34962
    },
    {
      "buffer": 0,
      "byteLength": 93184,
      "byteOffset": 418760,
      "byteStride": 16,
      "name": "floatBufferViews",
      "target": 34962
    }
  ],
  "buffers": [
    {
      "byteLength": 511944,
      "uri": "scene.bin"
    }
  ],
  "images": [
    {
      "uri": "textures/eyes_LPSG_baseColor.png"
    },
    {
      "uri": "textures/eyes_LPSG_metallicRoughness.png"
    },
    {
      "uri": "textures/eyes_LPSG_emissive.png"
    },
    {
      "uri": "textures/eyes_LPSG_normal.png"
    },
    {
      "uri": "textures/initialShadingGroup_baseColor.png"
    },
    {
      "uri": "textures/initialShadingGroup_emissive.png"
    }
  ],
  "materials": [
    {
      "doubleSided": true,
      "emissiveFactor": [
        1.0,
        1.0,
        1.0
      ],
      "emissiveTexture": {
        "index": 2
      },
      "name": "eyes_LPSG",
      "normalTexture": {
        "index": 3
      },
      "occlusionTexture": {
        "index": 1
      },
      "pbrMetallicRoughness": {
        "baseColorTexture": {
          "index": 0
        },
        "metallicFactor": 0.0,
        "metallicRoughnessTexture": {
          "index": 1
        }
      }
    },
    {
      "alphaMode": "BLEND",
      "doubleSided": true,
      "emissiveFactor": [
        1.0,
        1.0,
        1.0
      ],
      "emissiveTexture": {
        "index": 5
      },
      "name": "initialShadingGroup",
      "pbrMetallicRoughness": {
        "baseColorTexture": {
          "index": 4
        },
        "metallicFactor": 0.0,
        "roughnessFactor": 0.6
      }
    }
  ],
  "meshes": [
    {
      "name": "Object_0",
      "primitives": [
        {
          "attributes": {
            "NORMAL": 1,
            "POSITION": 0,
            "TANGENT": 2,
            "TEXCOORD_0": 3
          },
          "indices": 4,
          "material": 0,
          "mode": 4
        }
      ]
    },
    {
      "name": "Object_1",
      "primitives": [
        {
          "attributes": {
            "NORMAL": 6,
            "POSITION": 5,
            "TEXCOORD_0": 7
          },
          "indices": 8,
          "material": 1,
          "mode": 4
        }
      ]
    }
  ],
  "nodes": [
    {
      "children": [
        1
      ],
      "matrix": [
        1.0,
        0.0,
        0.0,
        0.0,
        0.0,
        2.220446049250313e-16,
        -1.0,
        0.0,
        0.0,
        1.0,
        2.220446049250313e-16,
        0.0,
        0.0,
        0.0,
        0.0,
        1.0
      ],
      "name": "Sketchfab_model"
    },
    {
      "children": [
        2,
        3
      ],
      "name": "cat_with_lights.obj.cleaner.materialmerger.gles"
    },
    {
      "mesh": 0,
      "name": "Object_2"
    },
    {
      "mesh": 1,
      "name": "Object_3"
    }
  ],
  "samplers": [
    {
      "magFilter": 9729,
      "minFilter": 9987,
      "wrapS": 10497,
      "wrapT": 10497
    }
  ],
  "scene": 0,
  "scenes": [
    {
      "name": "Sketchfab_Scene",
      "nodes": [
        0
      ]
    }
  ],
  "textures": [
    {
      "sampler": 0,
      "source": 0
    },
    {
      "sampler": 0,
      "source": 1
    },
    {
      "sampler": 0,
      "source": 2
    },
    {
      "sampler": 0,
      "source": 3
    },
    {
      "sampler": 0,
      "source": 4
    },
    {
      "sampler": 0,
      "source": 5
    }
  ]
}
